# xmcd CD database file
#
# Track frame offsets:
#	202
#	15952
#	29137
#	38905
#	50172
#	66700
#	82675
#	96160
#	108912
#	121167
#	135512
#	152632
#
# Disc length: 2256 seconds
#
# Revision: 2
# Processed by: cddbd v1.5.1PL0 Copyright (c) Steve Scherf et al.
# Submitted via: CDex 1.51
#
DISCID=9808ce0c
DTITLE=Jets - Cotton Pickin
DYEAR=1900
DGENRE=Rock and Roll
TTITLE0=Nervous
TTITLE1=Be-el-zebub boogie
TTITLE2=Penny Loafers
TTITLE3=Would you
TTITLE4=Heartbreaker
TTITLE5=Bones
TTITLE6=Razor Alley
TTITLE7=Can't keep a good man down
TTITLE8=Prima donna
TTITLE9=I Didn't like it
TTITLE10=Oh judy
TTITLE11=The hunter
EXTD=
EXTT0=
EXTT1=
EXTT2=
EXTT3=
EXTT4=
EXTT5=
EXTT6=
EXTT7=
EXTT8=
EXTT9=
EXTT10=
EXTT11=
PLAYORDER=
